<svg xmlns="http://www.w3.org/2000/svg" width="38.876" height="38.876" viewBox="0 0 38.876 38.876"><defs><style>.a{fill:#0078b6;}</style></defs><path class="a" d="M356.534,222.441h.926a.377.377,0,1,0,0-.755h-.926a.377.377,0,0,0,0,.755Z" transform="translate(-331.003 -206.666)"/><path class="a" d="M299.791,286.582h-.337a.377.377,0,0,0,0,.755h.337a.377.377,0,0,0,0-.755Z" transform="translate(-277.513 -267.48)"/><g transform="translate(0)"><rect class="a" width="2.43" height="2.43" transform="translate(17.045)"/><rect class="a" width="2.43" height="2.43" transform="translate(12.185)"/><path class="a" d="M32.8,0H21.9V2.43H32.8a3.645,3.645,0,0,1,3.645,3.645V32.8A3.645,3.645,0,0,1,32.8,36.446H6.074A3.645,3.645,0,0,1,2.43,32.8V6.074A3.645,3.645,0,0,1,6.074,2.43h3.68V0H6.074A6.082,6.082,0,0,0,0,6.074V32.8a6.082,6.082,0,0,0,6.074,6.074H32.8A6.082,6.082,0,0,0,38.876,32.8V6.074A6.082,6.082,0,0,0,32.8,0Z"/><path class="a" d="M86.406,128.837l-1.718,1.718,6.933,6.933L110.7,118.406l-1.718-1.718L91.621,134.052Z" transform="translate(-78.258 -107.828)"/></g></svg>