<svg xmlns="http://www.w3.org/2000/svg" width="76.17" height="67.083" viewBox="0 0 76.17 67.083"><defs><style>.a{fill:none;}.b{fill:#fff;}</style></defs><path class="a" d="M45.954,93.551c-.928,7.258-7.457,13.313-16.217,15.131a1.156,1.156,0,0,0-.928.985,15.462,15.462,0,0,1-11.914,13.34,18.419,18.419,0,0,0,4.452-12.036c0-.318-.012-.637-.03-.952a1.169,1.169,0,0,0-1.006-1.077c-10.126-1.5-17.8-8.638-17.8-17.217,0-11.941,14.47-20.277,28.447-16.678v0a23.343,23.343,0,0,1,2.714.866c.449,6.546,5.377,12.135,12.361,14.819A14.1,14.1,0,0,1,45.954,93.551Z" transform="translate(-1.766 -56.668)"/><path class="a" d="M113.107,95.552H113.1c-8.326-2.86-14.914-9.751-14.991-18.5a23.342,23.342,0,0,1,2.714.866c.449,6.546,5.377,12.135,12.361,14.819A14.1,14.1,0,0,1,113.107,95.552Z" transform="translate(-68.919 -58.669)"/><path class="a" d="M132.867,52.512c10.126-1.5,17.8-8.638,17.8-17.217,0-9.674-9.751-17.515-21.779-17.515S107.11,25.621,107.11,35.295c0,.33.012.661.036.988.449,6.546,5.377,12.135,12.361,14.819a25.274,25.274,0,0,0,3.934,1.152,1.156,1.156,0,0,1,.928.985,15.459,15.459,0,0,0,11.914,13.34,18.394,18.394,0,0,1-4.422-12.989A1.169,1.169,0,0,1,132.867,52.512Z" transform="translate(-75.241 -17.036)"/><path class="b" d="M27.362,126.142q-.442-.092-.873-.2a.744.744,0,1,1,.357-1.445q.4.1.82.186a.744.744,0,1,1-.3,1.456ZM23.559,125c-6.166-2.47-10-7.361-10-12.765a12.17,12.17,0,0,1,3.7-8.523.744.744,0,0,1,1.067,1.037,10.714,10.714,0,0,0-3.284,7.486c0,4.782,3.473,9.144,9.063,11.384A.744.744,0,1,1,23.559,125Z" transform="translate(-9.529 -77.242)"/><path class="b" d="M131.568,69.7q-.442-.092-.873-.2a.744.744,0,0,1,.357-1.445q.4.1.821.186a.744.744,0,1,1-.3,1.456Zm-3.8-1.137c-10.044-4.023-13.23-14.145-6.293-21.288a.744.744,0,1,1,1.067,1.037c-6.249,6.434-3.188,15.278,5.779,18.87a.744.744,0,1,1-.553,1.381Z" transform="translate(-82.724 -37.593)"/><path class="b" d="M36.335,81.695a.742.742,0,0,0,.339-.994.752.752,0,0,0-.994-.342h0a0,0,0,0,0,0,0,.744.744,0,0,0,.658,1.333Z" transform="translate(-24.792 -60.942)"/><path class="b" d="M53.658,15.279c-12.3,0-22.467,8.03-22.52,18.181-.575-.193-1.16-.369-1.752-.522a27.557,27.557,0,0,0-15.655.586.739.739,0,0,0-.461.943.752.752,0,0,0,.943.461,26.024,26.024,0,0,1,17,.131c.7,6.874,5.908,12.177,12.343,14.8.314,8.3-6.915,14.878-15.729,16.705a1.9,1.9,0,0,0-1.515,1.63,14.67,14.67,0,0,1-9.192,12.029,19.151,19.151,0,0,0,3.211-10.644c0-.3-.009-.625-.03-.994a1.926,1.926,0,0,0-1.637-1.771C9.05,65.389,1.5,58.65,1.5,50.335c0-4.975,2.755-9.668,7.561-12.873a.749.749,0,0,0,.205-1.033.764.764,0,0,0-1.033-.208C3.362,39.468.01,44.506.01,50.335c0,9.26,8.3,16.447,18.434,17.952a.426.426,0,0,1,.372.387c.021.339.03.636.03.908a17.752,17.752,0,0,1-4.272,11.551.746.746,0,0,0,.728,1.212A16.187,16.187,0,0,0,27.79,68.361a.417.417,0,0,1,.342-.34c9.442-1.964,16.876-8.9,16.92-17.61a26.131,26.131,0,0,0,3.008.813.409.409,0,0,1,.336.339A16.192,16.192,0,0,0,60.888,65.547a.746.746,0,0,0,.729-1.211,17.706,17.706,0,0,1-4.243-12.462.426.426,0,0,1,.372-.384,23.9,23.9,0,0,0,13.569-6.612.749.749,0,0,0-.012-1.053.759.759,0,0,0-1.05.009,22.367,22.367,0,0,1-12.727,6.186,1.922,1.922,0,0,0-1.637,1.768,19.108,19.108,0,0,0,3.178,11.644A14.662,14.662,0,0,1,49.879,51.4a1.909,1.909,0,0,0-1.518-1.631c-8.42-1.722-15.738-7.948-15.738-16.229,0-9.359,9.559-16.771,21.032-16.771h.006c11.477,0,21.032,7.416,21.032,16.771a13.675,13.675,0,0,1-1.223,5.642.744.744,0,0,0,.375.985.758.758,0,0,0,.982-.375,15.161,15.161,0,0,0,1.354-6.251c0-10.375-10.406-18.259-22.523-18.259Z" transform="translate(-0.01 -15.279)"/><path class="b" d="M242.892,102.959a.761.761,0,0,0-1.036.184h0v0a.744.744,0,1,0,1.22.851,0,0,0,0,0,0,0A.744.744,0,0,0,242.892,102.959Z" transform="translate(-169.796 -76.779)"/><path class="b" d="M56.705,125.385l9.13-9.13a.744.744,0,1,0-1.052-1.052l-8.5,8.5-3.054-4.413a.744.744,0,1,0-1.224.847l3.561,5.146a.744.744,0,0,0,1.138.1Z" transform="translate(-36.441 -85.316)"/><path class="b" d="M172.554,62.469a.744.744,0,0,0-1.044-.125l-4.371,3.437-4.372-3.437a.744.744,0,1,0-.919,1.17l4.087,3.214-4.087,3.214a.744.744,0,1,0,.919,1.17l4.372-3.438,4.372,3.437a.744.744,0,1,0,.919-1.17l-4.088-3.214,4.088-3.214A.744.744,0,0,0,172.554,62.469Z" transform="translate(-113.49 -48.227)"/></svg>