<svg xmlns="http://www.w3.org/2000/svg" width="58.319" height="61.379" viewBox="0 0 58.319 61.379"><defs><style>.a{fill:#fff;}</style></defs><g transform="translate(0)"><g transform="translate(0)"><path class="a" d="M90.411,54.334v-6.75A1.286,1.286,0,0,0,89.125,46.3h-31.5a1.286,1.286,0,0,0-1.286,1.286v6.75a1.286,1.286,0,0,0,1.286,1.286h31.5A1.286,1.286,0,0,0,90.411,54.334ZM87.84,53.048H58.91V48.87H87.84v4.179Z" transform="translate(-51.195 -40.833)"/><path class="a" d="M70.086,13.593l-2.539-2.539c-1.262-1.263-3.7-1.646-5.08-.27l-4.651,4.651V1.306A1.306,1.306,0,0,0,56.511,0H14.068a1.306,1.306,0,0,0-1.306,1.306V60.073a1.306,1.306,0,0,0,1.306,1.306H56.511a1.306,1.306,0,0,0,1.306-1.306v-29.4L70.087,18.4A3.4,3.4,0,0,0,70.086,13.593ZM15.374,58.767V2.612H55.2V18.048l-20.69,20.69c-.009.009-.014.017-.022.026a1.305,1.305,0,0,0-.282.453L30.959,48.2a1.306,1.306,0,0,0,1.666,1.674l9.022-3.213a1.3,1.3,0,0,0,.474-.3.081.081,0,0,0,.012-.008L55.2,33.284V58.767H15.374Zm20.594-16.73L38.826,44.9l-4.468,1.591Zm5.242,1.548-3.925-3.925L60.833,16.113l3.925,3.925Zm27.03-27.03L66.6,18.191,62.68,14.267l1.635-1.635c.22-.22,1-.114,1.386.27L68.24,15.44A.79.79,0,0,1,68.24,16.556Z" transform="translate(-12.762)"/><path class="a" d="M100.048,437.106H71.922a1.286,1.286,0,1,0,0,2.572h28.126a1.286,1.286,0,1,0,0-2.572Z" transform="translate(-63.805 -384.567)"/><path class="a" d="M92.9,198.809H71.922a1.286,1.286,0,0,0,0,2.572H92.9a1.286,1.286,0,0,0,0-2.572Z" transform="translate(-63.805 -174.959)"/><path class="a" d="M203.286,151.149H191.071a1.286,1.286,0,1,0,0,2.572h12.215a1.286,1.286,0,0,0,0-2.572Z" transform="translate(-168.45 -133.017)"/><path class="a" d="M80.52,153.72a1.286,1.286,0,1,0,0-2.572h-8.6a1.286,1.286,0,1,0,0,2.572Z" transform="translate(-63.805 -133.016)"/><path class="a" d="M87.432,246.468H71.922a1.286,1.286,0,0,0,0,2.572h15.51a1.286,1.286,0,1,0,0-2.572Z" transform="translate(-63.805 -216.901)"/><path class="a" d="M82.61,294.128H71.922a1.286,1.286,0,0,0,0,2.572H82.61a1.286,1.286,0,1,0,0-2.572Z" transform="translate(-63.805 -258.844)"/><path class="a" d="M81,343.073a1.286,1.286,0,0,0-1.286-1.286H71.922a1.286,1.286,0,0,0,0,2.572h7.8A1.286,1.286,0,0,0,81,343.073Z" transform="translate(-63.805 -300.785)"/><path class="a" d="M71.922,389.447a1.286,1.286,0,1,0,0,2.572h5.3a1.286,1.286,0,1,0,0-2.572Z" transform="translate(-63.805 -342.728)"/></g></g></svg>