<svg id="Layer_1" data-name="Layer 1" xmlns="http://www.w3.org/2000/svg" viewBox="0 0 230 58.06"><defs><style>.cls-1{fill:#0078b6;}.cls-2{fill:#fff;}</style></defs><title>bezwaar24-final-logo</title><g id="text"><path class="cls-1" d="M227.71,52.1c0,1.74-1.09,3.15-2.45,3.15H177.88c-1.35,0-2.45-1.41-2.45-3.15v-46c0-1.74,1.1-3.16,2.45-3.16h47.38c1.36,0,2.45,1.42,2.45,3.16Z"/><path class="cls-2" d="M181.2,41.16V30.1l.89-.85,2.65,2.55v8.08Zm16.81,3h-14.6A2.78,2.78,0,0,1,181.2,42l3.54-1.27h11.94Zm-2.66-27.23H184.79l-3.54-1.27a2.77,2.77,0,0,1,2.21-2.13h13.22Zm.89,10.21,1.77,1.7-1.77,1.71h-11.5L183,28.82l1.77-1.7Zm0-1.27V16.91l1.33-3.4a2.78,2.78,0,0,1,2.21,2.13V27.55l-.89.85Z"/><path class="cls-2" d="M207.74,16.49v9.36l-2.66,2.55-.88-.85V15.21Zm11.5,10.63,1.76,1.7-1.76,1.71h-11.5L206,28.82l1.77-1.7Zm0-1.27V16.91l1.32-3.4a2.77,2.77,0,0,1,2.21,2.13V27.55l-.88.85Zm2.65,3.4.88.85V42a2.77,2.77,0,0,1-2.21,2.13l-1.32-3.4V31.8Z"/></g><path d="M25.1,35.07a8.16,8.16,0,0,1-.8,3.7,7.46,7.46,0,0,1-2.14,2.63,9.76,9.76,0,0,1-3.5,1.78,18.15,18.15,0,0,1-4.84.53H2.53V15.5h10a34.16,34.16,0,0,1,4.71.24,8.82,8.82,0,0,1,3,1,5.41,5.41,0,0,1,2.26,2.18,6.42,6.42,0,0,1,.75,3.14,6.64,6.64,0,0,1-1,3.68,6.14,6.14,0,0,1-2.85,2.37v.15a7.72,7.72,0,0,1,4.18,2.25A6.44,6.44,0,0,1,25.1,35.07ZM16,23.48a3.26,3.26,0,0,0-.35-1.41,2.17,2.17,0,0,0-1.09-1,4.58,4.58,0,0,0-1.66-.33q-1,0-2.85,0H9.58v6h.89c1.21,0,2.06,0,2.55,0a4,4,0,0,0,1.5-.39,2.36,2.36,0,0,0,1.18-1.1A4,4,0,0,0,16,23.48ZM17.8,34.94a3.51,3.51,0,0,0-.53-2,3.18,3.18,0,0,0-1.59-1.11,5.36,5.36,0,0,0-1.77-.28c-.76,0-1.76,0-3,0H9.58v7.07H10c1.84,0,3.12,0,3.82,0A5.76,5.76,0,0,0,15.94,38a2.82,2.82,0,0,0,1.42-1.22A3.81,3.81,0,0,0,17.8,34.94Z"/><path d="M39.67,44.28q-6,0-9.24-2.88t-3.21-8.2a11.5,11.5,0,0,1,3-8.32q3-3.11,8.38-3.11,4.89,0,7.35,2.63c1.64,1.76,2.47,4.27,2.47,7.55v2.38H33.87a6,6,0,0,0,.63,2.48,4.29,4.29,0,0,0,1.4,1.58,5.67,5.67,0,0,0,2,.84,11.3,11.3,0,0,0,2.48.26,10.13,10.13,0,0,0,2.27-.26,10.71,10.71,0,0,0,2-.67,13.33,13.33,0,0,0,1.51-.78A13.17,13.17,0,0,0,47.33,37H48v5.48l-1.49.6a14.27,14.27,0,0,1-1.85.56,19.55,19.55,0,0,1-2.23.44A20,20,0,0,1,39.67,44.28Zm2.2-13.94a5.15,5.15,0,0,0-1-3.21A3.46,3.46,0,0,0,38.08,26a4,4,0,0,0-3,1.16,4.88,4.88,0,0,0-1.2,3.15Z"/><path d="M68.8,43.71H50.19V39.34L60.34,27.42h-9.7v-5h18v4.31L58.41,38.64H68.8Z"/><path d="M103.93,22.43,97.71,43.71h-7L86.93,30,83.18,43.71H76.13L70,22.43h7L80.2,36.51l4-14.08H90.1l3.8,14.08,3.21-14.08Z"/><path d="M118.48,41.46l-1.22,1a6.88,6.88,0,0,1-1.45.91,10.4,10.4,0,0,1-1.73.67,9.71,9.71,0,0,1-2.36.22A6.3,6.3,0,0,1,107,42.39a6.53,6.53,0,0,1-1.87-4.78,6.9,6.9,0,0,1,1-3.82,6.46,6.46,0,0,1,2.73-2.32,14.36,14.36,0,0,1,4.3-1.21c1.67-.23,3.46-.4,5.38-.53v-.11a2.49,2.49,0,0,0-1.3-2.44,8.71,8.71,0,0,0-3.89-.67,10.83,10.83,0,0,0-2.75.42A22.41,22.41,0,0,0,107.51,28h-.57V22.89a31.76,31.76,0,0,1,3.19-.67,25.25,25.25,0,0,1,4.43-.39q5.49,0,8,1.83a6.45,6.45,0,0,1,2.51,5.58V43.71h-6.6Zm0-3.3V33.73l-2.73.29a9.75,9.75,0,0,0-2,.48,2.94,2.94,0,0,0-1.36.92,2.6,2.6,0,0,0-.48,1.64,2.35,2.35,0,0,0,.8,2.06,4.2,4.2,0,0,0,2.38.56,4.33,4.33,0,0,0,1.78-.4A5.36,5.36,0,0,0,118.48,38.16Z"/><path d="M141.72,41.46l-1.23,1a6.88,6.88,0,0,1-1.45.91,10.4,10.4,0,0,1-1.73.67,9.65,9.65,0,0,1-2.36.22,6.32,6.32,0,0,1-4.69-1.89,6.57,6.57,0,0,1-1.87-4.78,6.9,6.9,0,0,1,1-3.82,6.46,6.46,0,0,1,2.73-2.32,14.36,14.36,0,0,1,4.3-1.21c1.67-.23,3.46-.4,5.38-.53v-.11a2.5,2.5,0,0,0-1.29-2.44,8.79,8.79,0,0,0-3.9-.67,10.9,10.9,0,0,0-2.75.42A22.41,22.41,0,0,0,130.74,28h-.57V22.89a31.76,31.76,0,0,1,3.19-.67,25.25,25.25,0,0,1,4.43-.39q5.51,0,8,1.83a6.45,6.45,0,0,1,2.51,5.58V43.71h-6.59Zm0-3.3V33.73c-1.13.11-2,.21-2.73.29a9.69,9.69,0,0,0-2.05.48,3,3,0,0,0-1.36.92,2.6,2.6,0,0,0-.48,1.64,2.33,2.33,0,0,0,.81,2.06,4.18,4.18,0,0,0,2.38.56,4.36,4.36,0,0,0,1.78-.4A5.61,5.61,0,0,0,141.72,38.16Z"/><path d="M167.51,28.71H167a4.53,4.53,0,0,0-1.1-.2,15.51,15.51,0,0,0-1.59-.07,8.6,8.6,0,0,0-2.19.3c-.77.21-1.51.45-2.23.72V43.71h-6.63V22.43h6.63v3.05q.45-.4,1.26-1.05a12.64,12.64,0,0,1,1.47-1,8.17,8.17,0,0,1,1.68-.75,5.79,5.79,0,0,1,1.81-.31c.21,0,.45,0,.72,0l.72.05Z"/></svg>