<svg xmlns="http://www.w3.org/2000/svg" width="42.873" height="42.873" viewBox="0 0 42.873 42.873"><defs><style>.a{fill:#83c5e8;}</style></defs><g transform="translate(0 0)"><path class="a" d="M16.006,435.053a2.858,2.858,0,0,0,2.847,2.661c.067,0,.134,0,.2-.007a2.858,2.858,0,1,0-3.049-2.654Zm1.773-1.135a1.42,1.42,0,0,1,.979-.488c.034,0,.067,0,.1,0a1.429,1.429,0,1,1-1.08.491Z" transform="translate(-15.999 -394.841)"/><circle class="a" cx="0.715" cy="0.715" r="0.715" transform="translate(5.714 35.729)"/><circle class="a" cx="0.715" cy="0.715" r="0.715" transform="translate(7.735 33.708)"/><path class="a" d="M125.442,370.978a.715.715,0,1,0,1.01,0A.715.715,0,0,0,125.442,370.978Z" transform="translate(-115.476 -339.082)"/><path class="a" d="M148.066,348.35a.715.715,0,1,0,1.011,0A.715.715,0,0,0,148.066,348.35Z" transform="translate(-136.08 -318.474)"/><path class="a" d="M116.991,16.258a.715.715,0,0,0-.779-.22L80.484,28.185a.715.715,0,0,0-.273,1.184l5.373,5.322L89.32,46.934a.714.714,0,0,0,1.255.219l.01-.012,3.136-4.39,5.069,5.021a.715.715,0,0,0,.5.207.7.7,0,0,0,.1-.007.715.715,0,0,0,.524-.358l17.149-30.549a.715.715,0,0,0-.074-.807ZM109.91,19.69,86.329,33.417l-4.291-4.251Zm.188,1.544L90.3,38.28a.715.715,0,0,0-.245.473l-.42,4.329-2.575-8.438ZM90.972,44.14l.364-3.753,1.357,1.344ZM99.129,46.1l-7.307-7.237,22.009-18.952Z" transform="translate(-74.283 -16)"/></g></svg>