<svg xmlns="http://www.w3.org/2000/svg" width="1050.289" height="782.088" viewBox="0 0 1050.289 782.088"><g transform="translate(-981.711 -313.5)"><ellipse cx="249" cy="248.5" rx="249" ry="248.5" transform="translate(1534 316)" fill="#f8f8fb"/><path d="M1365.968,1009.348c-48.052-8.187-199.962-163.673-249.718-180.976-50.5-16.928-112.981-70.613-121.96-190.422s34.373-288.319,176-309.183c100.527-9.168,263.647,98.946,401.476,114.12s52.793,255.269,52.793,255.269S1611.911,1067.389,1365.968,1009.348Z" fill="#83c5e8"/><path d="M1071.97,379.851c-112.192,89.754-50.219,186.987-14.959,326.96,18.233,72.381-148.521,214.768-29.918,336.577s275.672-3.205,378.248-129.288c107.918-149.59,333.371-45.945,364.358-276.741,4.274-119.672-153.359-304.481-432.424-260.609C1132.719,317.243,1071.97,379.851,1071.97,379.851Z" fill="none" stroke="#0078b6" stroke-width="5" stroke-dasharray="27"/><path d="M1081.441,414.248c82.041-53.512,155.343-17.26,236.713-7.4s162.075-12.3,244.222,18.213,157.7,91.1,179.888,193.842-81.37,150.411-180.822,173.425-132.74,51.987-258.494,190.891-301.645,76.438-285.206-57.534c22.938-126.12,105.79-139.268,54.246-294.248C1035,554.179,1016.1,460.892,1081.441,414.248Z" fill="#0078b6"/><g transform="translate(1464 897)" fill="none" stroke="#0078b6" stroke-width="4"><ellipse cx="50" cy="49.5" rx="50" ry="49.5" stroke="none"/><ellipse cx="50" cy="49.5" rx="48" ry="47.5" fill="none"/></g><line y2="50" transform="translate(1396.5 991.5)" fill="none" stroke="#0078b6" stroke-width="3"/><line y2="50" transform="translate(1336.5 313.5)" fill="none" stroke="#0078b6" stroke-width="3"/><line y2="50" transform="translate(1421.5 1016.5) rotate(90)" fill="none" stroke="#0078b6" stroke-width="3"/><line y2="50" transform="translate(1361.5 338.5) rotate(90)" fill="none" stroke="#0078b6" stroke-width="3"/><circle cx="15" cy="15" r="15" transform="translate(1602 861)" fill="#0078b6"/><circle cx="15" cy="15" r="15" transform="translate(1410 323)" fill="#0078b6"/></g></svg>