<svg xmlns="http://www.w3.org/2000/svg" width="494" height="546" viewBox="0 0 494 546"><defs><style>.a{fill:#f3f3f3;}</style></defs><g transform="translate(-1407 -4151)"><circle class="a" cx="9" cy="9" r="9" transform="translate(1407 4151)"/><circle class="a" cx="9" cy="9" r="9" transform="translate(1455 4151)"/><circle class="a" cx="9" cy="9" r="9" transform="translate(1503 4151)"/><circle class="a" cx="8" cy="8" r="8" transform="translate(1551 4152)"/><circle class="a" cx="8" cy="8" r="8" transform="translate(1600 4152)"/><circle class="a" cx="8" cy="8" r="8" transform="translate(1648 4152)"/><circle class="a" cx="7" cy="7" r="7" transform="translate(1697 4153)"/><circle class="a" cx="6" cy="6" r="6" transform="translate(1746 4154)"/><circle class="a" cx="6" cy="6" r="6" transform="translate(1794 4154)"/><circle class="a" cx="6" cy="6" r="6" transform="translate(1842 4154)"/><circle class="a" cx="5" cy="5" r="5" transform="translate(1891 4155)"/><g transform="translate(0 48)"><circle class="a" cx="9" cy="9" r="9" transform="translate(1407 4151)"/><circle class="a" cx="9" cy="9" r="9" transform="translate(1455 4151)"/><circle class="a" cx="9" cy="9" r="9" transform="translate(1503 4151)"/><circle class="a" cx="8" cy="8" r="8" transform="translate(1551 4152)"/><circle class="a" cx="8" cy="8" r="8" transform="translate(1600 4152)"/><circle class="a" cx="8" cy="8" r="8" transform="translate(1648 4152)"/><circle class="a" cx="7" cy="7" r="7" transform="translate(1697 4153)"/><circle class="a" cx="6" cy="6" r="6" transform="translate(1746 4154)"/><circle class="a" cx="6" cy="6" r="6" transform="translate(1794 4154)"/><circle class="a" cx="6" cy="6" r="6" transform="translate(1842 4154)"/><circle class="a" cx="5" cy="5" r="5" transform="translate(1891 4155)"/></g><g transform="translate(0 96)"><circle class="a" cx="9" cy="9" r="9" transform="translate(1407 4151)"/><circle class="a" cx="9" cy="9" r="9" transform="translate(1455 4151)"/><circle class="a" cx="9" cy="9" r="9" transform="translate(1503 4151)"/><circle class="a" cx="8" cy="8" r="8" transform="translate(1551 4152)"/><circle class="a" cx="8" cy="8" r="8" transform="translate(1600 4152)"/><circle class="a" cx="8" cy="8" r="8" transform="translate(1648 4152)"/><circle class="a" cx="7" cy="7" r="7" transform="translate(1697 4153)"/><circle class="a" cx="6" cy="6" r="6" transform="translate(1746 4154)"/><circle class="a" cx="6" cy="6" r="6" transform="translate(1794 4154)"/><circle class="a" cx="6" cy="6" r="6" transform="translate(1842 4154)"/><circle class="a" cx="5" cy="5" r="5" transform="translate(1891 4155)"/></g><g transform="translate(0 144)"><circle class="a" cx="9" cy="9" r="9" transform="translate(1407 4151)"/><circle class="a" cx="9" cy="9" r="9" transform="translate(1455 4151)"/><circle class="a" cx="9" cy="9" r="9" transform="translate(1503 4151)"/><circle class="a" cx="8" cy="8" r="8" transform="translate(1551 4152)"/><circle class="a" cx="8" cy="8" r="8" transform="translate(1600 4152)"/><circle class="a" cx="8" cy="8" r="8" transform="translate(1648 4152)"/><circle class="a" cx="7" cy="7" r="7" transform="translate(1697 4153)"/><circle class="a" cx="6" cy="6" r="6" transform="translate(1746 4154)"/><circle class="a" cx="6" cy="6" r="6" transform="translate(1794 4154)"/><circle class="a" cx="6" cy="6" r="6" transform="translate(1842 4154)"/><circle class="a" cx="5" cy="5" r="5" transform="translate(1891 4155)"/></g><g transform="translate(0 192)"><circle class="a" cx="9" cy="9" r="9" transform="translate(1407 4151)"/><circle class="a" cx="9" cy="9" r="9" transform="translate(1455 4151)"/><circle class="a" cx="9" cy="9" r="9" transform="translate(1503 4151)"/><circle class="a" cx="8" cy="8" r="8" transform="translate(1551 4152)"/><circle class="a" cx="8" cy="8" r="8" transform="translate(1600 4152)"/><circle class="a" cx="8" cy="8" r="8" transform="translate(1648 4152)"/><circle class="a" cx="7" cy="7" r="7" transform="translate(1697 4153)"/><circle class="a" cx="6" cy="6" r="6" transform="translate(1746 4154)"/><circle class="a" cx="6" cy="6" r="6" transform="translate(1794 4154)"/><circle class="a" cx="6" cy="6" r="6" transform="translate(1842 4154)"/><circle class="a" cx="5" cy="5" r="5" transform="translate(1891 4155)"/></g><g transform="translate(0 240)"><circle class="a" cx="9" cy="9" r="9" transform="translate(1407 4151)"/><circle class="a" cx="9" cy="9" r="9" transform="translate(1455 4151)"/><circle class="a" cx="9" cy="9" r="9" transform="translate(1503 4151)"/><circle class="a" cx="8" cy="8" r="8" transform="translate(1551 4152)"/><circle class="a" cx="8" cy="8" r="8" transform="translate(1600 4152)"/><circle class="a" cx="8" cy="8" r="8" transform="translate(1648 4152)"/><circle class="a" cx="7" cy="7" r="7" transform="translate(1697 4153)"/><circle class="a" cx="6" cy="6" r="6" transform="translate(1746 4154)"/><circle class="a" cx="6" cy="6" r="6" transform="translate(1794 4154)"/><circle class="a" cx="6" cy="6" r="6" transform="translate(1842 4154)"/><circle class="a" cx="5" cy="5" r="5" transform="translate(1891 4155)"/></g><g transform="translate(0 288)"><circle class="a" cx="9" cy="9" r="9" transform="translate(1407 4151)"/><circle class="a" cx="9" cy="9" r="9" transform="translate(1455 4151)"/><circle class="a" cx="9" cy="9" r="9" transform="translate(1503 4151)"/><circle class="a" cx="8" cy="8" r="8" transform="translate(1551 4152)"/><circle class="a" cx="8" cy="8" r="8" transform="translate(1600 4152)"/><circle class="a" cx="8" cy="8" r="8" transform="translate(1648 4152)"/><circle class="a" cx="7" cy="7" r="7" transform="translate(1697 4153)"/><circle class="a" cx="6" cy="6" r="6" transform="translate(1746 4154)"/><circle class="a" cx="6" cy="6" r="6" transform="translate(1794 4154)"/><circle class="a" cx="6" cy="6" r="6" transform="translate(1842 4154)"/><circle class="a" cx="5" cy="5" r="5" transform="translate(1891 4155)"/></g><g transform="translate(0 336)"><circle class="a" cx="9" cy="9" r="9" transform="translate(1407 4151)"/><circle class="a" cx="9" cy="9" r="9" transform="translate(1455 4151)"/><circle class="a" cx="9" cy="9" r="9" transform="translate(1503 4151)"/><circle class="a" cx="8" cy="8" r="8" transform="translate(1551 4152)"/><circle class="a" cx="8" cy="8" r="8" transform="translate(1600 4152)"/><circle class="a" cx="8" cy="8" r="8" transform="translate(1648 4152)"/><circle class="a" cx="7" cy="7" r="7" transform="translate(1697 4153)"/><circle class="a" cx="6" cy="6" r="6" transform="translate(1746 4154)"/><circle class="a" cx="6" cy="6" r="6" transform="translate(1794 4154)"/><circle class="a" cx="6" cy="6" r="6" transform="translate(1842 4154)"/><circle class="a" cx="5" cy="5" r="5" transform="translate(1891 4155)"/></g><g transform="translate(0 384)"><circle class="a" cx="9" cy="9" r="9" transform="translate(1407 4151)"/><circle class="a" cx="9" cy="9" r="9" transform="translate(1455 4151)"/><circle class="a" cx="9" cy="9" r="9" transform="translate(1503 4151)"/><circle class="a" cx="8" cy="8" r="8" transform="translate(1551 4152)"/><circle class="a" cx="8" cy="8" r="8" transform="translate(1600 4152)"/><circle class="a" cx="8" cy="8" r="8" transform="translate(1648 4152)"/><circle class="a" cx="7" cy="7" r="7" transform="translate(1697 4153)"/><circle class="a" cx="6" cy="6" r="6" transform="translate(1746 4154)"/><circle class="a" cx="6" cy="6" r="6" transform="translate(1794 4154)"/><circle class="a" cx="6" cy="6" r="6" transform="translate(1842 4154)"/><circle class="a" cx="5" cy="5" r="5" transform="translate(1891 4155)"/></g><g transform="translate(0 432)"><circle class="a" cx="9" cy="9" r="9" transform="translate(1407 4151)"/><circle class="a" cx="9" cy="9" r="9" transform="translate(1455 4151)"/><circle class="a" cx="9" cy="9" r="9" transform="translate(1503 4151)"/><circle class="a" cx="8" cy="8" r="8" transform="translate(1551 4152)"/><circle class="a" cx="8" cy="8" r="8" transform="translate(1600 4152)"/><circle class="a" cx="8" cy="8" r="8" transform="translate(1648 4152)"/><circle class="a" cx="7" cy="7" r="7" transform="translate(1697 4153)"/><circle class="a" cx="6" cy="6" r="6" transform="translate(1746 4154)"/><circle class="a" cx="6" cy="6" r="6" transform="translate(1794 4154)"/><circle class="a" cx="6" cy="6" r="6" transform="translate(1842 4154)"/><circle class="a" cx="5" cy="5" r="5" transform="translate(1891 4155)"/></g><g transform="translate(0 480)"><circle class="a" cx="9" cy="9" r="9" transform="translate(1407 4151)"/><circle class="a" cx="9" cy="9" r="9" transform="translate(1455 4151)"/><circle class="a" cx="9" cy="9" r="9" transform="translate(1503 4151)"/><circle class="a" cx="8" cy="8" r="8" transform="translate(1551 4152)"/><circle class="a" cx="8" cy="8" r="8" transform="translate(1600 4152)"/><circle class="a" cx="8" cy="8" r="8" transform="translate(1648 4152)"/><circle class="a" cx="7" cy="7" r="7" transform="translate(1697 4153)"/><circle class="a" cx="6" cy="6" r="6" transform="translate(1746 4154)"/><circle class="a" cx="6" cy="6" r="6" transform="translate(1794 4154)"/><circle class="a" cx="6" cy="6" r="6" transform="translate(1842 4154)"/><circle class="a" cx="5" cy="5" r="5" transform="translate(1891 4155)"/></g><g transform="translate(0 528)"><circle class="a" cx="9" cy="9" r="9" transform="translate(1407 4151)"/><circle class="a" cx="9" cy="9" r="9" transform="translate(1455 4151)"/><circle class="a" cx="9" cy="9" r="9" transform="translate(1503 4151)"/><circle class="a" cx="8" cy="8" r="8" transform="translate(1551 4152)"/><circle class="a" cx="8" cy="8" r="8" transform="translate(1600 4152)"/><circle class="a" cx="8" cy="8" r="8" transform="translate(1648 4152)"/><circle class="a" cx="7" cy="7" r="7" transform="translate(1697 4153)"/><circle class="a" cx="6" cy="6" r="6" transform="translate(1746 4154)"/><circle class="a" cx="6" cy="6" r="6" transform="translate(1794 4154)"/><circle class="a" cx="6" cy="6" r="6" transform="translate(1842 4154)"/><circle class="a" cx="5" cy="5" r="5" transform="translate(1891 4155)"/></g></g></svg>