<svg xmlns="http://www.w3.org/2000/svg" width="41.376" height="38.915" viewBox="0 0 41.376 38.915"><defs><style>.a{fill:#0078b6;}</style></defs><g transform="translate(0 0)"><path class="a" d="M49.189,26.183h-2.81V25.139a.5.5,0,0,0-.5-.5H30.642a.5.5,0,0,0-.5.5v1.044H26.486A2.189,2.189,0,0,0,24.3,28.369v3.636a7.468,7.468,0,0,0-12.022,5.923V40.19a1.8,1.8,0,0,0-1.159,1.284A2.259,2.259,0,0,0,12.5,44.119V44.6a7.34,7.34,0,0,0,3.8,6.425v2.217l-3.981,1.7-.028.013A4.2,4.2,0,0,0,10,58.341q0,.021,0,.042v4.661a.5.5,0,0,0,.5.5H29.575a.5.5,0,0,0,.5-.5V58.462h19.11a2.189,2.189,0,0,0,2.187-2.187V28.369A2.189,2.189,0,0,0,49.189,26.183Zm-18.043-.54H45.37v1.883H31.147ZM13.287,37.928a6.463,6.463,0,1,1,12.927,0v2.3a12.956,12.956,0,0,1-8.132-1.693,14.072,14.072,0,0,0,6.577-2.387.5.5,0,1,0-.614-.8c-3.464,2.657-9.651,2.376-9.713,2.373a.505.505,0,0,0-.53.473l-.151,2.492-.329-.169a.064.064,0,0,1-.034-.044Zm.224,6.673v-.865a.5.5,0,0,0-.418-.5,1.249,1.249,0,0,1-.994-1.526.786.786,0,0,1,.449-.546,1.065,1.065,0,0,0,.311.243l.824.423a.646.646,0,0,0,.939-.523s0-.006,0-.01l.156-2.564c.412,0,1.049,0,1.824-.057,4.121,3.506,9.954,2.527,10.2,2.483a.5.5,0,0,0,.149-.053.8.8,0,0,1,.618.6,1.248,1.248,0,0,1-.994,1.526.5.5,0,0,0-.418.5V44.6a6.325,6.325,0,1,1-12.65,0ZM24.3,50.416v3.05l-.523-.223V50.784Q24.047,50.612,24.3,50.416Zm-1.532.907v1.812a7.182,7.182,0,0,1-5.456,0V51.488A7.332,7.332,0,0,0,22.768,51.324Zm6.3,11.216H11.009V58.4a3.184,3.184,0,0,1,1.724-2.541l4.2-1.793a8.187,8.187,0,0,0,6.211,0l4.2,1.793A3.184,3.184,0,0,1,29.071,58.4Zm21.3-6.265a1.178,1.178,0,0,1-1.177,1.177H29.9a4.2,4.2,0,0,0-2.116-2.5l-.027-.013L25.309,53.9V49.478A7.3,7.3,0,0,0,27.17,44.6v-.483a2.259,2.259,0,0,0,1.383-2.645,1.808,1.808,0,0,0-1.33-1.337V37.928a7.443,7.443,0,0,0-1.914-4.988V28.369a1.178,1.178,0,0,1,1.177-1.177h3.651v.838a.5.5,0,0,0,.5.5H45.875a.5.5,0,0,0,.5-.5v-.838h2.81a1.178,1.178,0,0,1,1.177,1.177Z" transform="translate(-10 -24.634)"/><path class="a" d="M400.912,221.686h-3.689a.5.5,0,0,0,0,1.009h3.689a.5.5,0,0,0,0-1.009Z" transform="translate(-364.196 -205.114)"/><path class="a" d="M356.662,222.7H357.9a.5.5,0,0,0,0-1.009h-1.237a.5.5,0,0,0,0,1.009Z" transform="translate(-327.046 -205.114)"/><path class="a" d="M427.446,286.582h-1.253a.5.5,0,0,0,0,1.009h1.253a.5.5,0,0,0,0-1.009Z" transform="translate(-390.731 -264.553)"/><path class="a" d="M332.665,287.591a.5.5,0,0,0,0-1.009h-6.682a.5.5,0,1,0,0,1.009Z" transform="translate(-298.947 -264.553)"/><path class="a" d="M300.031,286.582h-.451a.5.5,0,0,0,0,1.009h.451a.5.5,0,0,0,0-1.009Z" transform="translate(-274.765 -264.553)"/><path class="a" d="M239.717,286.582a.5.5,0,0,0,0,1.009h2.861a.5.5,0,0,0,0-1.009Z" transform="translate(-219.936 -264.553)"/><path class="a" d="M409.641,346.563h-2.887a.5.5,0,1,0,0,1.009h2.887a.5.5,0,0,0,0-1.009Z" transform="translate(-372.926 -319.49)"/><path class="a" d="M381.267,346.563H380.9a.5.5,0,1,0,0,1.009h.362a.5.5,0,1,0,0-1.009Z" transform="translate(-349.25 -319.49)"/><path class="a" d="M334.147,346.563H331.4a.5.5,0,1,0,0,1.009h2.743a.5.5,0,0,0,0-1.009Z" transform="translate(-303.913 -319.49)"/><path class="a" d="M245.2,346.563h-5.485a.5.5,0,0,0,0,1.009H245.2a.5.5,0,1,0,0-1.009Z" transform="translate(-219.936 -319.49)"/><path class="a" d="M437.542,170.6h-.326a.5.5,0,1,0,0,1.009h.326a.5.5,0,1,0,0-1.009Z" transform="translate(-400.827 -158.325)"/><path class="a" d="M368.844,171.609h3.577a.5.5,0,0,0,0-1.009h-3.577a.5.5,0,1,0,0,1.009Z" transform="translate(-338.204 -158.325)"/><path class="a" d="M401.827,120.6h-3.605a.5.5,0,0,0,0,1.009h3.605a.5.5,0,0,0,0-1.009Z" transform="translate(-365.111 -112.529)"/><path class="a" d="M368.844,121.609h.3a.5.5,0,0,0,0-1.009h-.3a.5.5,0,1,0,0,1.009Z" transform="translate(-338.204 -112.529)"/><path class="a" d="M227.425,117.021a5.55,5.55,0,1,0-5.55-5.55A5.55,5.55,0,0,0,227.425,117.021Zm0-10.092a4.541,4.541,0,1,1-4.541,4.541A4.541,4.541,0,0,1,227.425,106.929Z" transform="translate(-204.057 -99.084)"/><path class="a" d="M252.993,148.552a.5.5,0,0,0,.714,0l3.686-3.686a.5.5,0,1,0-.714-.714l-3.329,3.329-1.082-1.082a.5.5,0,1,0-.714.714Z" transform="translate(-231.105 -133.966)"/></g></svg>