<svg xmlns="http://www.w3.org/2000/svg" width="52.788" height="42.227" viewBox="0 0 52.788 42.227"><defs><style>.a{fill:#fff;}</style></defs><g transform="translate(24.635 0)"><path class="a" d="M250.092,64.152,236.015,50.075a7.037,7.037,0,1,0-9.952,9.952l9.1,9.1-9.1,9.1a7.037,7.037,0,1,0,9.952,9.952L250.092,74.1a7.035,7.035,0,0,0,0-9.952ZM247.6,71.616,233.527,85.693a3.6,3.6,0,0,1-4.976,0,3.522,3.522,0,0,1,0-4.976l11.589-11.589L228.55,57.539a3.52,3.52,0,0,1,4.976-4.98L247.6,66.636a3.522,3.522,0,0,1,0,4.98Z" transform="translate(-224 -48.016)"/></g><g transform="translate(0 0)"><path class="a" d="M26.092,64.152,12.015,50.075a7.037,7.037,0,1,0-9.952,9.952l9.1,9.1-9.1,9.1a7.037,7.037,0,1,0,9.952,9.952L26.092,74.1a7.035,7.035,0,0,0,0-9.952ZM23.6,71.616,9.527,85.693a3.6,3.6,0,0,1-4.976,0,3.522,3.522,0,0,1,0-4.976L16.139,69.128,4.55,57.539a3.52,3.52,0,0,1,4.976-4.98L23.6,66.636a3.522,3.522,0,0,1,0,4.98Z" transform="translate(0 -48.016)"/></g></svg>