<svg xmlns="http://www.w3.org/2000/svg" width="37.199" height="37.197" viewBox="0 0 37.199 37.197"><defs><style>.a{fill:#83c5e8;}</style></defs><g transform="translate(0 0)"><g transform="translate(0 0)"><g transform="translate(0)"><path class="a" d="M228.625,85.41h0a5.584,5.584,0,0,0-6.759,5.458,1.86,1.86,0,1,0,3.719,0,1.864,1.864,0,0,1,2.281-1.816,1.822,1.822,0,0,1,1.394,1.395,1.887,1.887,0,0,1-.291,1.486,1.865,1.865,0,0,1-1.254.776,2.489,2.489,0,0,0-2.13,2.45v1.909a1.86,1.86,0,1,0,3.72,0v-.939a5.582,5.582,0,0,0-.68-10.719ZM231,93.356h0a4.353,4.353,0,0,1-2.471,1.715.619.619,0,0,0-.465.6v1.4a.62.62,0,1,1-1.24,0V95.159a1.242,1.242,0,0,1,1.066-1.222,3.1,3.1,0,0,0,.229-6.1,3.3,3.3,0,0,0-.682-.072,3.053,3.053,0,0,0-1.946.694,3.092,3.092,0,0,0-1.146,2.408.62.62,0,1,1-1.24,0A4.341,4.341,0,1,1,231,93.356Z" transform="translate(-205.747 -79.089)"/><path class="a" d="M274.926,290.14a1.86,1.86,0,1,0,1.86,1.86A1.86,1.86,0,0,0,274.926,290.14Zm0,2.48a.62.62,0,1,1,.62-.62A.62.62,0,0,1,274.926,292.62Z" transform="translate(-253.227 -269.061)"/><path class="a" d="M36.366,10.495A15.5,15.5,0,1,0,8.773,24.046L6.2,26.617h0L4.007,28.812h0l-3.1,3.1A3.1,3.1,0,0,0,5.292,36.3l3.1-3.1h0L10.586,31h0l2.571-2.571A15.5,15.5,0,0,0,36.366,10.495ZM4.416,35.421a1.91,1.91,0,0,1-2.632,0,1.864,1.864,0,0,1,0-2.632l2.662-2.661L7.077,32.76Zm3.538-3.538L5.321,29.25l1.318-1.318,2.632,2.632Zm2.195-2.195L7.516,27.056,9.51,25.062a15.629,15.629,0,0,0,2.632,2.632Zm11.55.077A14.259,14.259,0,1,1,35.957,15.506,14.259,14.259,0,0,1,21.7,29.765Z" transform="translate(0 -0.007)"/><path class="a" d="M132.485,34.14A13.019,13.019,0,1,0,145.5,47.159,13.019,13.019,0,0,0,132.485,34.14Zm0,24.8a11.779,11.779,0,1,1,11.779-11.779A11.779,11.779,0,0,1,132.485,58.938Z" transform="translate(-110.787 -31.66)"/></g></g></g></svg>