<svg xmlns="http://www.w3.org/2000/svg" width="62.536" height="62.536" viewBox="0 0 62.536 62.536"><defs><style>.a,.b{fill:#fff;}.b{font-size:5px;font-family:Montserrat-Black, Montserrat;font-weight:800;}</style></defs><path class="a" d="M57.325,18.761H45.86V13.549c0-.023-.012-.043-.014-.066a.98.98,0,0,0-.053-.268c-.012-.034-.02-.066-.035-.1a1.035,1.035,0,0,0-.208-.305L33.043.305A1.048,1.048,0,0,0,32.737.1c-.032-.013-.062-.022-.094-.033a1.033,1.033,0,0,0-.275-.054C32.351.012,32.332,0,32.31,0H5.211A5.217,5.217,0,0,0,0,5.211V53.156a5.217,5.217,0,0,0,5.211,5.211H27.2a5.22,5.22,0,0,0,5.107,4.169H57.325a5.217,5.217,0,0,0,5.211-5.211V23.972a5.217,5.217,0,0,0-5.211-5.211ZM42.3,12.507H34.395a1.042,1.042,0,0,1-1.042-1.042V3.558ZM2.084,53.156V5.211A3.127,3.127,0,0,1,5.211,2.085H31.268v9.38a3.127,3.127,0,0,0,3.127,3.127h9.38v4.169H32.31A5.217,5.217,0,0,0,27.1,23.972v32.31H5.211A3.127,3.127,0,0,1,2.084,53.156Zm58.367,4.169a3.127,3.127,0,0,1-3.127,3.127H32.31a3.127,3.127,0,0,1-3.127-3.127V23.972a3.127,3.127,0,0,1,3.127-3.127H57.325a3.127,3.127,0,0,1,3.127,3.127Zm0,0" transform="translate(0 0)"/><path class="a" d="M261.888,176H245.211A5.217,5.217,0,0,0,240,181.211v4.169a5.218,5.218,0,0,0,5.211,5.211h16.676a5.218,5.218,0,0,0,5.211-5.211v-4.169A5.218,5.218,0,0,0,261.888,176Zm3.127,9.38a3.127,3.127,0,0,1-3.127,3.127H245.211a3.127,3.127,0,0,1-3.127-3.127v-4.169a3.127,3.127,0,0,1,3.127-3.127h16.676a3.127,3.127,0,0,1,3.127,3.127Zm0,0" transform="translate(-208.732 -153.07)"/><path class="a" d="M244.169,304a4.169,4.169,0,1,0,4.169,4.169A4.169,4.169,0,0,0,244.169,304Zm0,6.254a2.085,2.085,0,1,1,2.085-2.085A2.085,2.085,0,0,1,244.169,310.254Zm0,0" transform="translate(-208.732 -264.394)"/><path class="a" d="M316.169,304a4.169,4.169,0,1,0,4.169,4.169A4.169,4.169,0,0,0,316.169,304Zm0,6.254a2.085,2.085,0,1,1,2.085-2.085A2.085,2.085,0,0,1,316.169,310.254Zm0,0" transform="translate(-271.352 -264.394)"/><path class="a" d="M244.169,384a4.169,4.169,0,1,0,4.169,4.169A4.169,4.169,0,0,0,244.169,384Zm0,6.254a2.085,2.085,0,1,1,2.085-2.085A2.085,2.085,0,0,1,244.169,390.254Zm0,0" transform="translate(-208.732 -333.971)"/><path class="a" d="M316.169,384a4.169,4.169,0,1,0,4.169,4.169A4.169,4.169,0,0,0,316.169,384Zm0,6.254a2.085,2.085,0,1,1,2.085-2.085A2.085,2.085,0,0,1,316.169,390.254Zm0,0" transform="translate(-271.352 -333.971)"/><path class="a" d="M388.169,304A4.169,4.169,0,0,0,384,308.169v10.423a4.169,4.169,0,0,0,8.338,0V308.169A4.169,4.169,0,0,0,388.169,304Zm2.085,14.592a2.085,2.085,0,1,1-4.169,0V308.169a2.085,2.085,0,0,1,4.169,0Zm0,0" transform="translate(-333.971 -264.394)"/><path class="a" d="M80.308,67.245a1.043,1.043,0,0,0,1.474,0l9.38-9.38a1.042,1.042,0,0,0-1.474-1.474l-9.38,9.38a1.043,1.043,0,0,0,0,1.474Zm0,0" transform="translate(-69.84 -38.888)"/><path class="a" d="M128,107.127A3.127,3.127,0,1,0,131.127,104,3.127,3.127,0,0,0,128,107.127Zm4.169,0a1.042,1.042,0,1,1-1.042-1.042A1.042,1.042,0,0,1,132.169,107.127Zm0,0" transform="translate(-111.584 -80.549)"/><path class="a" d="M75.127,54.254A3.127,3.127,0,1,0,72,51.127,3.127,3.127,0,0,0,75.127,54.254Zm0-4.169a1.042,1.042,0,1,1-1.042,1.042A1.042,1.042,0,0,1,75.127,50.085Zm0,0" transform="translate(-62.88 -31.845)"/><text class="b" transform="translate(13.481 10.882)"><tspan x="-6.777" y="0">WOZ</tspan></text></svg>